<?xml version="1.0" encoding="UTF-8"?><svg xmlns="http://www.w3.org/2000/svg" xmlns:xlink="http://www.w3.org/1999/xlink" viewBox="0 0 190 170"><defs><linearGradient id="linear-gradient" x1="141.4" y1="103.62" x2="149.19" y2="103.62" gradientTransform="matrix(1, 0, 0, 1, 0, 0)" gradientUnits="userSpaceOnUse"><stop offset="0" stop-color="#b7b9bb"/><stop offset="1" stop-color="#6d7072"/></linearGradient><linearGradient id="linear-gradient-2" x1="141.4" y1="103.62" x2="149.19" y2="103.62" gradientTransform="matrix(1, 0, 0, 1, 0, 0)" gradientUnits="userSpaceOnUse"><stop offset="0" stop-color="#d0d2d4"/><stop offset="1" stop-color="#86898b"/></linearGradient><linearGradient id="linear-gradient-3" x1="141.76" y1="103.62" y2="103.62" xlink:href="#linear-gradient-2"/><linearGradient id="linear-gradient-4" x1="142.26" y1="103.03" x2="146.41" y2="103.03" xlink:href="#linear-gradient-2"/><linearGradient id="linear-gradient-5" x1="73.76" y1="148.12" x2="75.93" y2="140.16" gradientTransform="matrix(1, 0, 0, 1, 0, 0)" gradientUnits="userSpaceOnUse"><stop offset="0" stop-color="#e6e8eb"/><stop offset="1" stop-color="#717475"/></linearGradient><linearGradient id="linear-gradient-6" x1="70.82" y1="144.6" x2="78.62" y2="144.6" xlink:href="#linear-gradient-5"/><linearGradient id="linear-gradient-7" x1="71.19" y1="144.6" x2="78.62" y2="144.6" xlink:href="#linear-gradient-5"/><linearGradient id="linear-gradient-8" x1="72.83" y1="144.8" x2="76.98" y2="144.8" xlink:href="#linear-gradient-2"/><linearGradient id="GradientFill_177" x1="11.84" y1="97.1" x2="184.94" y2="97.1" gradientTransform="matrix(1, 0, 0, 1, 0, 0)" gradientUnits="userSpaceOnUse"><stop offset="0" stop-color="#fdbd30"/><stop offset="1" stop-color="#ffd434"/></linearGradient><linearGradient id="___2" x1="44.58" y1="138.05" x2="40.88" y2="138.05" gradientTransform="matrix(1, 0, 0, 1, 0, 0)" gradientUnits="userSpaceOnUse"><stop offset="0" stop-color="#fff"/><stop offset="1" stop-color="#000"/></linearGradient></defs><g style="isolation:isolate;"><g id="Bus"><g id="Rutebus_v2"><path d="M152.63,101.2l-1.21,1.95-2.65-1.56-3.48-6.98s5.15-2.53,6.84,.59c1.69,3.12,.5,6,.5,6Z" style="fill:#212a2d;"/><path d="M81.99,141.99l-1.21,1.95-2.65-1.56-3.48-6.98s5.15-2.53,6.84,.59c1.69,3.12,.5,6,.5,6Z" style="fill:#212a2d;"/><g><path d="M148.86,96.43h0l-4.52-2.53c-1-.44-2.32-.29-3.76,.54-3.16,1.82-5.72,6.26-5.72,9.9,0,1.89,.69,3.19,1.81,3.75l4.02,2.25h0c1.04,.7,2.54,.66,4.21-.3,3.16-1.82,5.72-6.26,5.72-9.88,0-1.87-.67-3.16-1.75-3.74Z" style="fill:#2e373a; fill-rule:evenodd;"/><path d="M144.9,110.05c-3.16,1.82-5.72,.34-5.72-3.28s2.56-8.08,5.72-9.9c3.16-1.82,5.72-.34,5.72,3.3s-2.56,8.06-5.72,9.88Z" style="fill:#555e61; fill-rule:evenodd;"/><path d="M144.9,109.55c-2.92,1.68-5.28,.32-5.28-3.03,0-3.37,2.36-7.46,5.28-9.15,2.92-1.68,5.28-.32,5.28,3.05s-2.36,7.45-5.28,9.13Z" style="fill:#2e373a; fill-rule:evenodd;"/><path d="M149.19,101.37c0,2.49-1.75,5.51-3.9,6.75-2.15,1.24-3.9,.23-3.9-2.25s1.75-5.51,3.9-6.75c2.15-1.24,3.9-.24,3.9,2.25Z" style="fill:url(#linear-gradient);"/><path d="M145.29,99.12c-.29,.17-.57,.37-.84,.6,.1-.06,.19-.13,.29-.19,1.83-1.06,3.32-.2,3.32,1.91s-1.48,4.69-3.32,5.74c-1.82,1.05-3.29,.21-3.31-1.87-.02,.19-.03,.37-.03,.55,0,2.49,1.75,3.49,3.9,2.25,2.15-1.24,3.9-4.27,3.9-6.75s-1.75-3.49-3.9-2.25Z" style="fill:url(#linear-gradient-2);"/><path d="M145.57,98.98c1.71-.62,3.01,.35,3.01,2.44,0,2.34-1.65,5.19-3.68,6.37-1.33,.77-2.49,.62-3.14-.23,.62,1.18,1.97,1.48,3.53,.57,2.15-1.24,3.9-4.27,3.9-6.75s-1.6-3.4-3.63-2.39Z" style="fill:url(#linear-gradient-3);"/><g><path d="M146.41,101.83c0,1.32-.93,2.93-2.08,3.6-1.15,.66-2.08,.13-2.08-1.2s.93-2.93,2.08-3.6c1.15-.66,2.08-.13,2.08,1.2Z" style="fill:url(#linear-gradient-4);"/><g><path d="M145.32,102.67c0,.44-.31,.98-.69,1.2-.38,.22-.69,.04-.69-.4s.31-.98,.69-1.2c.38-.22,.69-.04,.69,.4Z" style="fill:#2e373a;"/><path d="M144.06,102.21c0,.19-.13,.41-.29,.51-.16,.09-.29,.02-.29-.17s.13-.41,.29-.51c.16-.09,.29-.02,.29,.17Z" style="fill:#343433;"/><path d="M145.56,101.32c0,.19-.13,.41-.29,.51-.16,.09-.29,.02-.29-.17s.13-.41,.29-.51c.16-.09,.29-.02,.29,.17Z" style="fill:#343433;"/><path d="M146.06,102.73c0,.19-.13,.41-.29,.51-.16,.09-.29,.02-.29-.17s.13-.41,.29-.51c.16-.09,.29-.02,.29,.17Z" style="fill:#343433;"/><path d="M144.87,104.44c0,.19-.13,.41-.29,.51-.16,.09-.29,.02-.29-.17s.13-.41,.29-.51c.16-.09,.29-.02,.29,.17Z" style="fill:#343433;"/><path d="M143.67,104.1c0,.19-.13,.41-.29,.51-.16,.09-.29,.02-.29-.17s.13-.41,.29-.51c.16-.09,.29-.02,.29,.17Z" style="fill:#343433;"/></g></g></g><g><path d="M78.29,137.4h0l-4.52-2.53c-1.01-.44-2.32-.29-3.76,.54-3.16,1.82-5.72,6.26-5.72,9.9,0,1.89,.69,3.19,1.81,3.76l4.02,2.26h0c1.04,.7,2.54,.66,4.2-.3,3.16-1.82,5.72-6.26,5.72-9.88,0-1.87-.67-3.16-1.75-3.74Z" style="fill:#2e373a; fill-rule:evenodd;"/><path d="M74.32,151.03c-3.16,1.82-5.72,.34-5.72-3.28s2.56-8.08,5.72-9.9c3.16-1.82,5.72-.34,5.72,3.3s-2.56,8.06-5.72,9.88Z" style="fill:#555e61; fill-rule:evenodd;"/><path d="M74.32,150.52c-2.92,1.68-5.28,.32-5.28-3.03,0-3.37,2.36-7.46,5.28-9.15,2.92-1.68,5.28-.32,5.28,3.05s-2.37,7.45-5.28,9.13Z" style="fill:#2e373a; fill-rule:evenodd;"/><g><path d="M78.62,142.35c0,2.49-1.75,5.51-3.9,6.75-2.15,1.24-3.9,.24-3.9-2.25s1.75-5.51,3.9-6.75c2.15-1.24,3.9-.24,3.9,2.25Z" style="fill:url(#linear-gradient-5);"/><path d="M74.72,140.1c-.29,.17-.57,.37-.84,.6,.1-.07,.19-.13,.29-.19,1.83-1.06,3.32-.2,3.32,1.91s-1.48,4.69-3.32,5.74c-1.82,1.05-3.29,.21-3.31-1.87-.02,.19-.03,.37-.03,.55,0,2.49,1.75,3.49,3.9,2.25,2.15-1.24,3.9-4.27,3.9-6.75s-1.75-3.49-3.9-2.25Z" style="fill:url(#linear-gradient-6);"/><path d="M74.99,139.96c1.71-.62,3.01,.35,3.01,2.44,0,2.34-1.65,5.19-3.68,6.37-1.33,.77-2.49,.62-3.14-.23,.62,1.18,1.97,1.48,3.53,.57,2.15-1.24,3.9-4.27,3.9-6.75s-1.6-3.4-3.63-2.39Z" style="fill:url(#linear-gradient-7);"/><path d="M76.98,143.6c0,1.32-.93,2.93-2.08,3.6-1.15,.66-2.08,.13-2.08-1.2s.93-2.93,2.08-3.6c1.15-.66,2.08-.13,2.08,1.2Z" style="fill:url(#linear-gradient-8);"/><path d="M75.89,144.44c0,.44-.31,.98-.69,1.2-.38,.22-.69,.04-.69-.4s.31-.98,.69-1.2c.38-.22,.69-.04,.69,.4Z" style="fill:#2e373a;"/><path d="M74.63,143.98c0,.19-.13,.41-.29,.51-.16,.09-.29,.02-.29-.17s.13-.41,.29-.51c.16-.09,.29-.02,.29,.17Z" style="fill:#343433;"/><path d="M76.13,143.09c0,.19-.13,.41-.29,.51-.16,.09-.29,.02-.29-.17s.13-.41,.29-.51c.16-.09,.29-.02,.29,.17Z" style="fill:#343433;"/><path d="M76.63,144.5c0,.19-.13,.41-.29,.51-.16,.09-.29,.02-.29-.17s.13-.41,.29-.51c.16-.09,.29-.02,.29,.17Z" style="fill:#343433;"/><path d="M75.43,146.21c0,.19-.13,.41-.29,.51-.16,.09-.29,.02-.29-.17s.13-.41,.29-.51c.16-.09,.29-.02,.29,.17Z" style="fill:#343433;"/><path d="M74.24,145.87c0,.19-.13,.41-.29,.51-.16,.09-.29,.02-.29-.17s.13-.41,.29-.51c.16-.09,.29-.02,.29,.17Z" style="fill:#343433;"/><path d="M75.03,141.26c.12,.27,.04,.57-.18,.67-.22,.1-.5-.04-.62-.31-.12-.27-.04-.57,.18-.67,.22-.1,.5,.03,.62,.31Z" style="fill:#343433;"/><path d="M76.61,141.21c.03,.3-.09,.55-.26,.56-.17,.01-.33-.21-.35-.51-.02-.3,.09-.55,.26-.56,.17-.01,.33,.21,.35,.51Z" style="fill:#343433;"/><path d="M73.22,142.57c.25,.16,.34,.47,.19,.71-.15,.23-.47,.3-.72,.14-.25-.16-.34-.47-.19-.71,.15-.23,.47-.3,.72-.14Z" style="fill:#343433;"/><path d="M72.02,144.8c.3,.02,.52,.24,.5,.49-.02,.25-.27,.43-.57,.41-.3-.02-.52-.25-.5-.49,.02-.25,.27-.43,.57-.41Z" style="fill:#343433;"/><path d="M71.92,146.83c.28-.08,.56,.02,.62,.22,.06,.2-.12,.43-.41,.52-.29,.08-.56-.02-.62-.22-.06-.2,.12-.43,.41-.52Z" style="fill:#343433;"/><path d="M73.28,147.97c.18-.16,.38-.22,.44-.15,.06,.07-.04,.25-.22,.41-.18,.16-.38,.22-.44,.15-.06-.07,.04-.26,.22-.41Z" style="fill:#343433;"/></g></g><g><g><path d="M5.48,120.24s.16-.14,.41,0c.24,.14,1.74,.97,1.83,1.06,.09,.09,.27,.13,.27,.61v4.7c0,.24-.07,.5-.25,.54-.17,.04-.73,.16-.85,.19-.12,.03-.27,.02-.42-.06-.14-.08-1.03-.59-1.15-.66-.12-.07-.26-.26-.26-.53v-4.98c0-.07,.04-.32,.14-.47,.1-.15,.26-.38,.26-.38Z" style="fill:#e1e8ec;"/><path d="M5.34,126.6c-.12-.07-.26-.26-.26-.53v-4.98s0-.09,.02-.15c.05-.03,.1-.04,.17,0,.34,.19,1.27,.72,1.41,.81,.15,.08,.32,.18,.32,.61v4.55c0,.15,0,.3-.06,.4h-.05c-.12,.04-.27,.03-.42-.05-.14-.08-1.03-.59-1.15-.66Z" style="mix-blend-mode:multiply; opacity:.1;"/></g><path d="M11.94,114.8c-1.15,.66-2.61,1.66-3.82,2.5-2.17,1.5-2.04,3.96-2.04,3.96l.81,.39,.93-.54c0-1.05,.7-1.58,.7-1.58l2.79-1.61,1.49-.13,1.61-.93v-2.34s-1.62-.22-2.47,.27Z" style="fill:#3b4345;"/><path d="M14.42,114.53v2.34l-1.61,.93-1.49,.13-2.79,1.61s-.7,.53-.7,1.58l-.93,.54s-.19-2.68,2.04-3.96c2.23-1.29,5.48-3.17,5.48-3.17Z" style="fill:#151d1f;"/></g><path d="M184.31,50.12s-.05-2.15-.73-2.99c-.07-.08-.12-.19-.23-.25l-29.04-16.77c-.14-.08-.35-.1-.57-.13-1.09-.12-2.41,.73-2.41,.73,0,0-134.42,77.55-136.27,78.68-1.86,1.13-1.88,2.33-1.88,2.33,0,0-.85,6.21-1.07,12.99-.22,6.78-.02,12.64-.02,12.64l-.22,.38s-.03,5.47,0,7.22c.01,.61,.16,1.14,.21,1.42,.1,.56,1.71,2.63,14.21,9.65,15.38,9.14,17.04,8.18,17.04,8.18l4.6-1.29,19.97-11.53v-3.76c0-4.11,2.88-9.1,6.44-11.16,3.56-2.05,6.44-.39,6.44,3.72v3.76l57.76-33.35v-3.76c0-4.11,2.88-9.1,6.44-11.16,3.56-2.05,6.44-.39,6.44,3.72v3.76l21.11-12.19,12.16-9.5,.24-3.89v-8.96s-.56-16.25-.64-18.49Z" style="fill:url(#GradientFill_177);"/><g><polygon points="80.77 143.4 80.77 143.94 138.54 110.59 138.54 110.05 80.77 143.4" style="opacity:.1;"/><path d="M184.31,50.12s-.01-.6-.12-1.28c-.08,.26-.22,.47-.44,.59L44.47,129.84s-1.65,.96-17.04-8.18c-12.4-6.96-14.12-9.16-14.28-9.79-.13,1-.85,6.69-1.05,12.84-.08,2.52-.11,4.91-.1,6.92,0-1.94,.03-4.22,.1-6.61,.12-3.6,.41-7.05,.66-9.49h0c-.04,.42-.09,.87-.13,1.35,.1,.55,1.53,2.77,14.62,10.12,15.38,9.14,17.33,8.21,17.33,8.21l.09-.05v17.96l-1.66,2.09s-1.61,1.58-16.99-7.55c-11.6-6.51-13.81-9.02-14.17-9.9,0,.09,0,.46,0,.98,.9,1.38,4.81,6.49,15.58,12.71,10.86,6.27,14.74,5.61,15.6,5.28v1.95c-.86,.34-4.75,1.3-15.6-4.97-10.8-6.23-14.7-11.61-15.59-12.98,0,1.58,0,3.37,.01,4.24,.01,.61,.16,1.14,.21,1.42,.1,.56,1.71,2.63,14.21,9.65,15.38,9.14,17.04,8.18,17.04,8.18l4.6-1.29,19.97-11.53v-.54l-19.58,11.31v-.36l19.58-11.31v-2.86c0-4.11,2.88-9.1,6.44-11.16,3.56-2.05,6.44-.39,6.44,3.72v2.86l57.76-33.35v-2.86c0-4.11,2.88-9.1,6.44-11.16,3.56-2.05,6.44-.39,6.44,3.72v2.86l21.23-12.26v.36l-21.23,12.26v.54l21.11-12.19,12.16-9.5,.24-3.89v-8.96s-.56-16.25-.64-18.49Z" style="opacity:.1;"/></g><path d="M27.43,121.66c15.38,9.14,17.04,8.18,17.04,8.18L183.74,49.43c.22-.12,.36-.33,.44-.59,.01,.09,.03,.17,.04,.25-.09-.67-.27-1.51-.64-1.96-.03-.03-.05-.07-.08-.11,.05,.35-.14,.61-.36,.75L44.3,127.94h-.04c-.48,0-3.54-.39-16.59-8.14-9.75-5.47-12.71-7.86-13.61-8.81,0,0-.38-.34,.06-.59L153.17,30.11c.14-.08,.35-.13,.57-.13-1.09-.12-2.41,.73-2.41,.73,0,0-134.42,77.55-136.27,78.68-1.86,1.13-1.88,2.33-1.88,2.33,0,0,0,.05-.02,.16,.16,.63,1.89,2.83,14.28,9.79Z" style="opacity:.05;"/><path d="M12.07,137.64s0-.13,0-.28l-.09,.15,.1,.13Z" style="opacity:.1;"/><path d="M47.11,128.31l-2.64,1.53s-1.65,.96-17.04-8.18c-12.4-6.96-14.12-9.16-14.28-9.79-.13,1-.85,6.69-1.05,12.84-.08,2.52-.11,4.91-.1,6.92,0-1.94,.03-4.22,.1-6.61,.12-3.6,.41-7.05,.66-9.49h0c-.04,.42-.09,.87-.13,1.35,.1,.55,1.53,2.77,14.62,10.12,15.38,9.14,17.33,8.21,17.33,8.21l.09-.05v17.96l-1.66,2.09s-1.61,1.58-16.99-7.55c-11.6-6.51-13.81-9.02-14.17-9.9,0,.09,0,.46,0,.98,.9,1.38,4.81,6.49,15.58,12.71,10.86,6.27,14.74,5.61,15.6,5.28v1.95c-.86,.34-4.75,1.3-15.6-4.97-10.8-6.23-14.7-11.61-15.59-12.98,0,1.58,0,3.37,.01,4.24,.01,.61,.16,1.14,.21,1.42,.1,.56,1.71,2.63,14.21,9.65,15.38,9.14,17.04,8.18,17.04,8.18l3.8-1.07v-34.82Z" style="fill:url(#___2); mix-blend-mode:multiply; opacity:.1;"/><path d="M20.71,152.8c1.56,.94,3.4,2,5.57,3.22,2.42,1.44,4.5,2.63,6.29,3.61l-1.23-2.62-9.48-5.47-1.15,1.27Z" style="opacity:.1;"/><g style="mix-blend-mode:multiply; opacity:.3;"><path d="M177.24,80.59v-2.66l2.3-1.33v2.66l-2.3,1.33Zm.08-2.61v2.47l2.14-1.24v-2.47l-2.14,1.24Z"/></g><polygon points="86.36 140.71 86.44 140.66 86.44 127.56 86.36 127.56 86.36 140.71" style="mix-blend-mode:multiply; opacity:.3;"/><polygon points="64.12 153.55 64.21 153.5 64.21 137.78 64.12 137.78 64.12 153.55" style="mix-blend-mode:multiply; opacity:.3;"/><path d="M46.85,154.54l-2.56,1.44-.81,.76,.06,.06,.8-.76,2.51-1.41v5.8c-.25,.13-2.8,1.46-4.77,1.48,0,0-.8,.03-1.53-.03-.72-.07-1.35-.26-1.36-.26l-4.56-.87c.08,.04,.17,.09,.25,.13l4.29,.82s.64,.2,1.37,.27c.37,.04,.76,.04,1.05,.04s.49,0,.49,0c1.91-.02,4.36-1.26,4.76-1.47v2.69l.08-.02v-16.92h-.08v8.28Z" style="mix-blend-mode:multiply; opacity:.3;"/><polygon points="107.42 128.55 107.51 128.5 107.51 114.26 107.42 114.26 107.42 128.55" style="mix-blend-mode:multiply; opacity:.3;"/><polygon points="124.66 118.6 124.74 118.55 124.74 106.01 124.66 106.01 124.66 118.6" style="mix-blend-mode:multiply; opacity:.3;"/><polygon points="173.05 90.56 173.14 90.49 173.14 74.98 173.05 74.98 173.05 85.63 155.7 95.65 155.7 82.78 155.62 82.78 155.62 100.73 155.7 100.68 155.7 95.75 173.05 85.73 173.05 90.56" style="mix-blend-mode:multiply; opacity:.3;"/><polygon points="182.48 75.17 182.48 69.53 182.4 69.53 182.4 83.25 182.48 83.19 182.48 80.04 184.88 78.66 184.88 78.56 182.48 79.94 182.48 75.26 184.94 73.84 184.94 73.75 182.48 75.17" style="mix-blend-mode:multiply; opacity:.3;"/><path d="M15.59,148s-1.21-.93-2.22-2.2c-.67-.84-1.23-1.7-1.52-2.2v.16c.31,.51,.84,1.31,1.46,2.09,1.02,1.27,2.22,2.2,2.23,2.21,.03,.03,2.55,2.68,3.62,3.79,.09,.06,.18,.11,.28,.17-.88-.92-3.8-3.98-3.84-4.02Z" style="mix-blend-mode:multiply; opacity:.3;"/><path d="M15.68,148.04c-1.72-1.59-3.15-3.35-3.15-3.35l.68,2.29c.56,.47,1.41,1.07,2.18,1.57l.29-.51Z" style="fill:#414e52;"/><path d="M39.19,161.61c1.72,.4,3.15,.28,3.15,.28l-.68,1.5c-.56-.17-1.41-.56-2.18-.94l-.29-.84Z" style="fill:#414e52;"/><path d="M27.43,153.39c10.86,6.27,14.74,5.62,15.6,5.28l1.28-2.66-1.28,.54c-.86,.34-4.75,.99-15.6-5.28-10.86-6.27-14.74-11.4-15.6-12.74v2.12c.86,1.33,4.75,6.47,15.6,12.74Z" style="fill:#414e52;"/><path d="M182.59,50.09L44.47,129.84s-1.65,.96-17.04-8.18c-12.4-6.96-14.12-9.16-14.28-9.79-.07,.52-.29,2.28-.52,4.7,.1,.55,1.53,2.77,14.62,10.12,15.38,9.14,17.33,8.21,17.33,8.21L182.59,55.22v-5.13Z" style="fill:#141c1e;"/><path d="M27.43,121.66c-12.4-6.96-14.12-9.16-14.28-9.79-.07,.5-.28,2.19-.5,4.52,.21,.65,2,2.97,14.6,10.05,15.38,9.14,17.33,8.21,17.33,8.21L182.59,54.97v-4.88L44.47,129.84s-1.65,.96-17.04-8.18Z" style="fill:#2e3638;"/><g><path d="M29.01,157.5c-.05,0-.11-.02-.16-.05l-4.53-2.62c-.16-.09-.29-.31-.29-.5v-.82c0-.16,.1-.28,.24-.28,.05,0,.11,.02,.16,.05l4.53,2.62c.16,.09,.29,.31,.29,.5v.82c0,.16-.1,.28-.24,.28Z" style="fill:#758286;"/><path d="M29.14,157.23c0,.15-.11,.21-.24,.14l-4.53-2.62c-.13-.07-.23-.26-.23-.41v-.82c0-.15,.11-.21,.23-.14l4.53,2.62c.13,.07,.24,.26,.24,.41v.82Z" style="fill:#fff;"/></g><polygon points="66.91 142.26 65.1 143.31 65.1 142.26 66.91 141.21 66.91 142.26" style="mix-blend-mode:multiply; opacity:.3;"/><polygon points="65.24 142.34 66.77 141.45 66.77 142.18 65.24 143.07 65.24 142.34" style="fill:#fe732c;"/><path d="M182.59,50.06v5.17L44.58,134.9s-1.95,.93-17.33-8.21c-13.09-7.35-14.52-9.57-14.62-10.12,.05-.48,.09-.93,.13-1.35h0c-.25,2.44-.55,5.88-.66,9.48-.21,6.58-.03,12.3-.02,12.62l.02,.05s-1.89,1.08,13.93,9.96c15.38,9.14,16.99,7.86,16.99,7.86l2.4-2.33,13.16-7.6,5.59-6.86,14.91-8.61,5.53,.44,50.58-29.2,5.76-6.96,41.64-24.04v-19.99Z" style="fill:#141c1e;"/><polygon points="155.39 71.38 155.39 74.93 143.16 81.99 143.16 78.45 155.39 71.38" style="fill:#303e42;"/><polygon points="107.86 98.83 124.33 89.32 124.33 106.86 107.86 116.36 107.86 98.83" style="fill:#303e42;"/><polygon points="125.12 88.86 142.36 78.91 142.36 82.45 125.12 92.4 125.12 88.86" style="fill:#303e42;"/><polygon points="156.19 70.92 172.66 61.42 172.66 64.96 156.19 74.47 156.19 70.92" style="fill:#303e42;"/><polygon points="156.19 84.83 156.19 75.16 172.66 65.65 172.66 75.32 156.19 84.83" style="fill:#303e42;"/><polygon points="143.16 82.68 155.39 75.62 155.39 85.29 143.16 92.35 143.16 82.68" style="fill:#303e42;"/><polygon points="125.12 93.09 142.36 83.14 142.36 92.81 140.85 93.69 135.09 100.64 125.12 106.4 125.12 93.09" style="fill:#303e42;"/><polygon points="86.7 115.28 106.86 103.64 106.86 116.94 86.7 128.58 86.7 115.28" style="fill:#303e42;"/><polygon points="106.86 99.4 106.86 102.95 86.7 114.58 86.7 111.04 106.86 99.4" style="fill:#303e42;"/><path d="M14.46,142.55c0,.37-.27,.52-.6,.33-.33-.19-.6-.65-.6-1.02s.27-.52,.6-.33c.33,.19,.6,.65,.6,1.02Z" style="fill:#eef5f9;"/><path d="M16.16,144.21c0,.37-.27,.52-.6,.33-.33-.19-.6-.65-.6-1.02,0-.37,.27-.52,.6-.33,.33,.19,.6,.65,.6,1.02Z" style="fill:#eef5f9;"/><path d="M17.14,144.8c0,.1-.07,.14-.16,.09-.09-.05-.16-.17-.16-.28,0-.1,.07-.14,.16-.09,.09,.05,.16,.17,.16,.28Z" style="fill:#eef5f9;"/><path d="M17.72,145.29c0,.1-.07,.14-.16,.09-.09-.05-.16-.17-.16-.28s.07-.14,.16-.09c.09,.05,.16,.17,.16,.28Z" style="fill:#eef5f9;"/><path d="M18.26,145.72c0,.1-.07,.14-.16,.09-.09-.05-.16-.17-.16-.28s.07-.14,.16-.09c.09,.05,.16,.17,.16,.28Z" style="fill:#eef5f9;"/><path d="M18.84,146.17c0,.1-.07,.14-.16,.09-.09-.05-.16-.17-.16-.28s.07-.14,.16-.09c.09,.05,.16,.17,.16,.28Z" style="fill:#eef5f9;"/><path d="M19.36,146.57c0,.1-.07,.14-.16,.09-.09-.05-.16-.17-.16-.28s.07-.14,.16-.09c.09,.05,.16,.17,.16,.28Z" style="fill:#eef5f9;"/><path d="M13.01,140.73c0,.21-.15,.3-.33,.19-.18-.1-.33-.36-.33-.57s.15-.29,.33-.19c.18,.1,.33,.36,.33,.57Z" style="fill:#eef5f9;"/><path d="M14.01,146.96c0,.19-.13,.27-.3,.17-.17-.1-.3-.33-.3-.52s.13-.27,.3-.17c.17,.1,.3,.33,.3,.52Z" style="fill:#eef5f9;"/><path d="M40.4,157.53c0,.37,.27,.83,.6,1.02,.33,.19,.6,.05,.6-.33s-.27-.83-.6-1.02c-.33-.19-.6-.04-.6,.33Z" style="fill:#eef5f9;"/><path d="M38.7,157.22c0,.37,.27,.83,.6,1.02,.33,.19,.6,.04,.6-.33s-.27-.83-.6-1.02c-.33-.19-.6-.04-.6,.33Z" style="fill:#eef5f9;"/><path d="M37.72,156.68c0,.1,.07,.23,.16,.28,.09,.05,.16,0,.16-.09s-.07-.23-.16-.28c-.09-.05-.16,0-.16,.09Z" style="fill:#eef5f9;"/><path d="M37.14,156.5c0,.1,.07,.23,.16,.28,.09,.05,.16,0,.16-.09,0-.1-.07-.23-.16-.28-.09-.05-.16,0-.16,.09Z" style="fill:#eef5f9;"/><path d="M36.46,156.26c0,.1,.07,.23,.16,.28,.09,.05,.16,0,.16-.09s-.07-.23-.16-.28c-.09-.05-.16,0-.16,.09Z" style="fill:#eef5f9;"/><path d="M35.87,156.04c0,.1,.07,.23,.16,.28,.09,.05,.16,0,.16-.09s-.07-.23-.16-.28c-.09-.05-.16,0-.16,.09Z" style="fill:#eef5f9;"/><path d="M35.36,155.84c0,.1,.07,.23,.16,.28,.09,.05,.16,0,.16-.09,0-.1-.07-.23-.16-.28-.09-.05-.16,0-.16,.09Z" style="fill:#eef5f9;"/><path d="M41.86,157.38c0,.21,.15,.47,.33,.57,.18,.1,.33,.02,.33-.19s-.15-.47-.33-.57c-.18-.1-.33-.02-.33,.19Z" style="fill:#eef5f9;"/><path d="M40.85,162.45c0,.19,.13,.42,.3,.52,.17,.1,.3,.02,.3-.17s-.13-.42-.3-.52c-.17-.1-.3-.02-.3,.17Z" style="fill:#eef5f9;"/><path d="M144.98,95.21c3.77-2.18,6.84-.41,6.84,3.95v3.76l-.4,.23v-3.76c0-4.11-2.88-5.77-6.44-3.72-3.56,2.05-6.44,7.05-6.44,11.16v3.76l-.4,.23v-3.76c0-4.36,3.07-9.67,6.84-11.85Z" style="fill:#3b4447;"/><path d="M74.33,136c3.77-2.18,6.84-.41,6.84,3.95v3.76l-.4,.23v-3.76c0-4.11-2.88-5.77-6.44-3.72-3.56,2.05-6.44,7.05-6.44,11.16v3.76l-.4,.23v-3.76c0-4.36,3.07-9.67,6.84-11.85Z" style="fill:#3b4447;"/><polygon points="130.55 113.08 131.91 112.29 131.91 111.63 130.55 112.42 130.55 113.08" style="fill:#fe732c;"/><polygon points="97.99 131.87 99.35 131.09 99.35 130.43 97.99 131.22 97.99 131.87" style="fill:#fe732c;"/><polygon points="65.37 150.7 66.74 149.92 66.74 149.26 65.37 150.05 65.37 150.7" style="fill:#fe732c;"/><polygon points="153.1 100.06 154.46 99.27 154.46 98.61 153.1 99.4 153.1 100.06" style="fill:#fe732c;"/><polygon points="174.95 87.44 176.31 86.66 176.31 86 174.95 86.79 174.95 87.44" style="fill:#fe732c;"/><path d="M46.32,134.36l-1.1,.63h0l-.66,.38c-.24,.06-2.78,.42-17.31-8.22-13.09-7.35-14.52-9.57-14.62-10.12,0-.03,0-.06-.04-.09-.2,2.22-.4,4.94-.5,7.76-.17,5.31-.09,10.06-.05,11.87,.01,.02,.02,.04,.02,.05l.02,.05s-.02,.01-.04,.04c0,.13,0,.24,0,.33,.3,.78,2.41,3.11,13.96,9.59,15.38,9.14,16.99,7.86,16.99,7.86l2.34-2.05,.97-.56v-17.54Z" style="fill:#303e42;"/><path d="M12.96,117.62l-.44,.26c-.17,2.03-.33,4.39-.41,6.83-.17,5.31-.09,10.06-.05,11.87,.01,.02,.02,.04,.02,.05l.02,.05s-.02,.01-.04,.04c0,.13,0,.24,0,.33,.02,.05,.04,.1,.07,.15,.37-1.25,2.01-2.73,2.01-2.73l.88-.51v-14.45c-1.15-.89-1.75-1.49-2.07-1.89Z" style="fill:#c5d0d3; opacity:.7;"/><path d="M26.41,126.68c-12.31-6.97-13.68-9.11-13.78-9.64,0-.03,0-.06-.04-.09-.2,2.22-.4,4.94-.5,7.76-.17,5.31-.09,10.06-.05,11.87,.01,.02,.02,.04,.02,.05l.02,.05s-.02,.01-.04,.04c0,.13,0,.24,0,.33,.23,.59,1.5,2.07,7.12,5.58,1.26-4.49,3.45-10.29,7.23-15.94Z" style="fill:#fff; opacity:.1;"/><path d="M38.48,128.25c-2.56-1.23-6.17-3.16-11.27-6.19-4.04-2.27-8.61-4.97-11.53-7.12v3.77c2,1.5,5.54,3.81,11.81,7.33,4.94,2.93,8.47,4.81,11,6.02v-3.81Z" style="fill:#485052;"/><g><polygon points="63.77 130.58 63.77 124.28 47.4 133.73 47.4 140.04 63.77 130.58" style="fill:#303e42;"/><polygon points="47.4 140.56 47.4 151.27 58.48 144.87 63.77 138.37 63.77 131.11 47.4 140.56" style="fill:#303e42;"/></g><polygon points="86.11 111.39 67.49 122.13 67.49 136.04 79.19 129.28 84.71 129.73 86.11 128.92 86.11 111.39" style="fill:#303e42;"/><polygon points="23.2 128.73 23.2 128.73 23.2 125.72 16.84 125.57 16.84 128.58 16.84 128.58 23.2 128.73" style="fill:#c5d0d3; opacity:.7;"/><path d="M16.84,125.01l6.36,.15h0v-.33c-2.79-1.64-4.84-2.95-6.36-4v4.18Z" style="fill:#c5d0d3; opacity:.7;"/><path d="M26.2,126.56c-.25-.14-.49-.28-.72-.41v1.27l.72-.85Z" style="fill:#c5d0d3; opacity:.7;"/><path d="M31.83,129.8c-1.38-.77-2.9-1.65-4.58-2.65-.25-.14-.49-.28-.73-.41l-1.05,1.23v8.65l6.36-3.67v-3.15Z" style="fill:#c5d0d3; opacity:.7;"/><polygon points="22.02 138.62 23.2 137.94 23.2 129.29 23.2 129.29 16.84 129.14 16.84 129.14 16.84 135.64 22.02 138.62" style="fill:#c5d0d3; opacity:.7;"/><g><polygon points="66 103.17 50.8 111.95 41.38 106.51 41.38 105.96 56.58 97.18 66 102.62 66 103.17" style="fill:#151d1f;"/><polygon points="66 102.62 50.8 111.4 41.38 105.96 56.58 97.18 66 102.62" style="fill:#485052;"/></g><g><polygon points="135.91 62.5 120.7 71.28 111.28 65.84 111.28 65.29 126.49 56.51 135.91 61.95 135.91 62.5" style="fill:#151d1f;"/><polygon points="135.91 61.95 120.7 70.73 111.28 65.29 126.49 56.51 135.91 61.95" style="fill:#485052;"/></g><g><g><polygon points="96.4 73.92 102.88 77.66 106.9 75.35 106.9 75.11 100.41 71.37 96.4 73.68 96.4 73.92" style="fill:#151d1f;"/><polygon points="96.4 73.68 102.88 77.43 106.9 75.11 100.41 71.37 96.4 73.68" style="fill:#485052;"/></g><g><polygon points="89.74 77.75 96.23 81.49 100.24 79.17 100.24 78.94 93.76 75.19 89.74 77.51 89.74 77.75" style="fill:#151d1f;"/><polygon points="89.74 77.51 96.23 81.25 100.24 78.94 93.76 75.19 89.74 77.51" style="fill:#485052;"/></g><g><polygon points="83.09 81.57 89.57 85.32 93.59 83 93.59 82.76 87.1 79.02 83.09 81.34 83.09 81.57" style="fill:#151d1f;"/><polygon points="83.09 81.34 89.57 85.08 93.59 82.76 87.1 79.02 83.09 81.34" style="fill:#485052;"/></g><g><polygon points="76.43 85.4 82.92 89.14 86.93 86.82 86.93 86.59 80.45 82.84 76.43 85.16 76.43 85.4" style="fill:#151d1f;"/><polygon points="76.43 85.16 82.92 88.91 86.93 86.59 80.45 82.84 76.43 85.16" style="fill:#485052;"/></g></g><g><polygon points="118.45 77.54 84.35 97.24 63.58 85.24 62.65 87.5 84.35 100.02 119.38 79.8 118.45 77.54" style="opacity:.05;"/><polygon points="63.58 85.24 62.65 87.5 84.35 100.02 84.35 97.24 63.58 85.24" style="opacity:.05;"/><polygon points="97.68 65.7 118.33 77.62 118.45 77.54 97.68 65.55 63.58 85.24 63.71 85.32 97.68 65.7" style="fill:#e1e8ec; mix-blend-mode:screen; opacity:.5;"/></g><polygon points="156.24 57.93 179.23 44.65 179.23 43.11 157.63 30.64 135.43 43.51 134.63 45.46 156.24 57.93" style="fill:#222a2c;"/><polygon points="157.04 55.99 179.23 43.11 157.63 30.64 135.43 43.51 157.04 55.99" style="fill:#485052;"/><g><g><polygon points="23.7 121.87 22.96 121.44 22.87 121.49 22.96 121.64 23.7 122.07 23.79 122.02 23.7 121.87" style="fill:#ffa100;"/><polygon points="23.7 120.74 22.96 120.31 22.87 120.36 22.96 120.52 23.7 120.94 23.79 120.89 23.7 120.74" style="fill:#ffa100;"/><polygon points="23.7 122.99 22.96 122.56 22.87 122.61 22.96 122.77 23.7 123.19 23.79 123.14 23.7 122.99" style="fill:#ffa100;"/><polygon points="22.84 120.38 22.75 120.43 22.75 121.29 22.84 121.44 22.93 121.39 22.93 120.53 22.84 120.38" style="fill:#ffa100; opacity:.4;"/><polygon points="23.82 120.94 23.73 120.99 23.73 121.85 23.82 122 23.9 121.95 23.9 121.1 23.82 120.94" style="fill:#ffa100;"/><polygon points="22.84 121.51 22.75 121.56 22.75 122.41 22.84 122.56 22.93 122.51 22.93 121.66 22.84 121.51" style="fill:#ffa100; opacity:.4;"/><polygon points="23.82 122.07 23.73 122.12 23.73 122.97 23.82 123.13 23.9 123.08 23.9 122.22 23.82 122.07" style="fill:#ffa100;"/><polygon points="22.29 121.05 21.55 120.63 21.46 120.68 21.55 120.83 22.29 121.26 22.38 121.21 22.29 121.05" style="fill:#ffa100;"/><polygon points="22.29 119.93 21.55 119.5 21.46 119.55 21.55 119.7 22.29 120.13 22.38 120.08 22.29 119.93" style="fill:#ffa100;"/><polygon points="22.29 122.18 21.55 121.75 21.46 121.8 21.55 121.95 22.29 122.38 22.38 122.33 22.29 122.18" style="fill:#ffa100;"/><polygon points="21.43 119.57 21.35 119.62 21.35 120.48 21.43 120.63 21.52 120.58 21.52 119.72 21.43 119.57" style="fill:#ffa100; opacity:.4;"/><polygon points="22.41 120.13 22.32 120.18 22.32 121.04 22.41 121.19 22.5 121.14 22.5 120.28 22.41 120.13" style="fill:#ffa100;"/><polygon points="21.43 120.69 21.35 120.74 21.35 121.6 21.43 121.75 21.52 121.7 21.52 120.85 21.43 120.69" style="fill:#ffa100;"/><polygon points="22.41 121.26 22.32 121.31 22.32 122.16 22.41 122.31 22.5 122.26 22.5 121.41 22.41 121.26" style="fill:#ffa100; opacity:.4;"/></g><g><polygon points="25.2 122.57 24.9 122.39 24.9 122.03 25.2 122.2 25.2 122.57" style="fill:#ffa100;"/><polygon points="29.91 125.29 25.9 122.97 25.9 122.6 29.91 124.92 29.91 125.29" style="fill:#ffa100;"/><polygon points="33.15 127.16 30.71 125.75 30.71 125.38 33.15 126.79 33.15 127.16" style="fill:#ffa100;"/><polygon points="25.2 123.54 24.9 123.37 24.9 123 25.2 123.17 25.2 123.54" style="fill:#ffa100;"/><polygon points="29.01 125.74 25.9 123.94 25.9 123.57 29.01 125.37 29.01 125.74" style="fill:#ffa100;"/><polygon points="33.15 128.13 29.66 126.12 29.66 125.75 33.15 127.76 33.15 128.13" style="fill:#ffa100;"/></g></g><g><g><path d="M47.39,136.6s.16-.14,.41,0c.24,.14,1.74,.97,1.83,1.06,.09,.09,.27,.13,.27,.61v4.7c0,.24-.07,.5-.25,.54-.17,.04-.73,.16-.85,.19-.12,.03-.27,.02-.42-.06-.14-.08-1.03-.59-1.15-.66-.12-.07-.26-.26-.26-.53v-4.98c0-.07,.04-.32,.14-.47l.26-.38Z" style="fill:#e1e8ec;"/><path d="M47.24,142.97c-.12-.07-.26-.26-.26-.53v-4.98s0-.09,.02-.15c.05-.03,.1-.04,.17,0,.34,.19,1.27,.72,1.41,.81,.15,.08,.32,.18,.32,.61v4.55c0,.15,0,.3-.06,.4h-.05c-.12,.04-.27,.03-.42-.05-.14-.08-1.03-.59-1.15-.66Z" style="mix-blend-mode:multiply; opacity:.1;"/></g><g><path d="M48.01,133.67l-.56-.32-.79,.47v2.48l2.18,1.26,.79-.47v-.61c0-1.03-.72-2.29-1.62-2.8Z" style="fill:#3b4345;"/><path d="M48.84,136.94c0-1.03-.72-2.29-1.62-2.8l-.56-.32v2.48l2.18,1.26v-.61Z" style="fill:#151d1f;"/></g></g></g></g></g></svg>